<mxfile host="app.diagrams.net" modified="2024-04-21T10:03:20.627Z" agent="Mozilla/5.0 (Windows NT 10.0; Win64; x64) AppleWebKit/537.36 (KHTML, like Gecko) Chrome/123.0.0.0 Safari/537.36" etag="vUB8XDDhUi32dWitJFcu" version="24.2.7" type="github">
  <diagram name="Page-1" id="0783ab3e-0a74-02c8-0abd-f7b4e66b4bec">
    <mxGraphModel dx="1434" dy="746" grid="1" gridSize="10" guides="1" tooltips="1" connect="1" arrows="1" fold="1" page="1" pageScale="1" pageWidth="850" pageHeight="1100" background="none" math="0" shadow="0">
      <root>
        <mxCell id="0" />
        <mxCell id="1" parent="0" />
        <mxCell id="1c1d494c118603dd-1" value="LAEL REX" style="swimlane;html=1;childLayout=stackLayout;startSize=20;rounded=0;shadow=0;comic=0;labelBackgroundColor=none;strokeWidth=1;fontFamily=Verdana;fontSize=12;align=center;" parent="1" vertex="1">
          <mxGeometry x="40" y="20" width="1070" height="990" as="geometry" />
        </mxCell>
        <mxCell id="1c1d494c118603dd-2" value="LAEL Exporter" style="swimlane;html=1;startSize=20;" parent="1c1d494c118603dd-1" vertex="1">
          <mxGeometry y="20" width="250" height="970" as="geometry" />
        </mxCell>
        <mxCell id="afBEJ1qmN9qO1VWpJjCL-3" value="" style="ellipse;whiteSpace=wrap;html=1;rounded=0;shadow=0;comic=0;labelBackgroundColor=none;strokeWidth=1;fillColor=#000000;fontFamily=Verdana;fontSize=12;align=center;" vertex="1" parent="1c1d494c118603dd-2">
          <mxGeometry x="100" y="22" width="20" height="20" as="geometry" />
        </mxCell>
        <mxCell id="afBEJ1qmN9qO1VWpJjCL-4" value="Start LAEL Rex" style="rounded=1;whiteSpace=wrap;html=1;shadow=0;comic=0;labelBackgroundColor=none;strokeWidth=1;fontFamily=Verdana;fontSize=12;align=center;arcSize=50;" vertex="1" parent="1c1d494c118603dd-2">
          <mxGeometry x="60" y="69" width="100" height="21" as="geometry" />
        </mxCell>
        <mxCell id="afBEJ1qmN9qO1VWpJjCL-2" style="edgeStyle=orthogonalEdgeStyle;rounded=0;html=1;labelBackgroundColor=none;startArrow=none;startFill=0;startSize=5;endArrow=classicThin;endFill=1;endSize=5;jettySize=auto;orthogonalLoop=1;strokeWidth=1;fontFamily=Verdana;fontSize=12" edge="1" parent="1c1d494c118603dd-2" source="afBEJ1qmN9qO1VWpJjCL-3" target="afBEJ1qmN9qO1VWpJjCL-4">
          <mxGeometry relative="1" as="geometry" />
        </mxCell>
        <mxCell id="1c1d494c118603dd-35" style="edgeStyle=none;rounded=0;html=1;labelBackgroundColor=none;startArrow=none;startFill=0;startSize=5;endArrow=classicThin;endFill=1;endSize=5;jettySize=auto;orthogonalLoop=1;strokeWidth=1;fontFamily=Verdana;fontSize=12" parent="1c1d494c118603dd-2" source="1c1d494c118603dd-10" edge="1">
          <mxGeometry relative="1" as="geometry">
            <mxPoint x="152.27272727272725" y="455" as="targetPoint" />
          </mxGeometry>
        </mxCell>
        <mxCell id="1c1d494c118603dd-46" style="edgeStyle=none;rounded=0;html=1;labelBackgroundColor=none;startArrow=none;startFill=0;startSize=5;endArrow=oval;endFill=0;endSize=5;jettySize=auto;orthogonalLoop=1;strokeWidth=1;fontFamily=Verdana;fontSize=12;dashed=1;" parent="1c1d494c118603dd-2" source="1c1d494c118603dd-21" edge="1">
          <mxGeometry relative="1" as="geometry">
            <mxPoint x="130.625" y="370" as="targetPoint" />
          </mxGeometry>
        </mxCell>
        <mxCell id="1c1d494c118603dd-47" style="edgeStyle=none;rounded=0;html=1;dashed=1;labelBackgroundColor=none;startArrow=none;startFill=0;startSize=5;endArrow=oval;endFill=0;endSize=5;jettySize=auto;orthogonalLoop=1;strokeWidth=1;fontFamily=Verdana;fontSize=12" parent="1c1d494c118603dd-2" target="1c1d494c118603dd-10" edge="1">
          <mxGeometry relative="1" as="geometry">
            <mxPoint x="115" y="415" as="sourcePoint" />
          </mxGeometry>
        </mxCell>
        <mxCell id="afBEJ1qmN9qO1VWpJjCL-32" value="Submit LAEL Rex Intent" style="rounded=1;whiteSpace=wrap;html=1;shadow=0;comic=0;labelBackgroundColor=none;strokeWidth=1;fontFamily=Verdana;fontSize=12;align=center;arcSize=50;" vertex="1" parent="1c1d494c118603dd-2">
          <mxGeometry x="25" y="204" width="170" height="34" as="geometry" />
        </mxCell>
        <mxCell id="afBEJ1qmN9qO1VWpJjCL-42" value="" style="endArrow=classic;html=1;rounded=0;entryX=0.5;entryY=0;entryDx=0;entryDy=0;" edge="1" parent="1c1d494c118603dd-2" target="afBEJ1qmN9qO1VWpJjCL-123">
          <mxGeometry width="50" height="50" relative="1" as="geometry">
            <mxPoint x="110" y="90" as="sourcePoint" />
            <mxPoint x="160" y="40" as="targetPoint" />
          </mxGeometry>
        </mxCell>
        <mxCell id="afBEJ1qmN9qO1VWpJjCL-58" style="edgeStyle=orthogonalEdgeStyle;rounded=0;orthogonalLoop=1;jettySize=auto;html=1;entryX=0.5;entryY=1;entryDx=0;entryDy=0;" edge="1" parent="1c1d494c118603dd-2" source="afBEJ1qmN9qO1VWpJjCL-46" target="afBEJ1qmN9qO1VWpJjCL-32">
          <mxGeometry relative="1" as="geometry" />
        </mxCell>
        <mxCell id="afBEJ1qmN9qO1VWpJjCL-46" value="&lt;span style=&quot;font-family: Helvetica;&quot;&gt;Fix validation issues&lt;/span&gt;" style="rounded=1;whiteSpace=wrap;html=1;shadow=0;comic=0;labelBackgroundColor=none;strokeWidth=1;fontFamily=Verdana;fontSize=12;align=center;arcSize=50;" vertex="1" parent="1c1d494c118603dd-2">
          <mxGeometry x="47.5" y="314" width="125" height="30" as="geometry" />
        </mxCell>
        <mxCell id="afBEJ1qmN9qO1VWpJjCL-39" value="" style="endArrow=classic;html=1;rounded=0;exitX=1;exitY=0.25;exitDx=0;exitDy=0;entryX=0;entryY=0.5;entryDx=0;entryDy=0;" edge="1" parent="1c1d494c118603dd-2" target="60571a20871a0731-3">
          <mxGeometry width="50" height="50" relative="1" as="geometry">
            <mxPoint x="200" y="220.25" as="sourcePoint" />
            <mxPoint x="270" y="222" as="targetPoint" />
          </mxGeometry>
        </mxCell>
        <mxCell id="afBEJ1qmN9qO1VWpJjCL-66" value="Fill LAEL Rex details" style="rounded=1;whiteSpace=wrap;html=1;shadow=0;comic=0;labelBackgroundColor=none;strokeWidth=1;fontFamily=Verdana;fontSize=12;align=center;arcSize=50;" vertex="1" parent="1c1d494c118603dd-2">
          <mxGeometry x="40" y="424" width="132.5" height="30" as="geometry" />
        </mxCell>
        <mxCell id="afBEJ1qmN9qO1VWpJjCL-67" value="Submit LAEL Rex" style="rounded=1;whiteSpace=wrap;html=1;shadow=0;comic=0;labelBackgroundColor=none;strokeWidth=1;fontFamily=Verdana;fontSize=12;align=center;arcSize=50;" vertex="1" parent="1c1d494c118603dd-2">
          <mxGeometry x="43.75" y="474" width="132.5" height="30" as="geometry" />
        </mxCell>
        <mxCell id="afBEJ1qmN9qO1VWpJjCL-124" style="edgeStyle=orthogonalEdgeStyle;rounded=0;orthogonalLoop=1;jettySize=auto;html=1;entryX=0.5;entryY=0;entryDx=0;entryDy=0;" edge="1" parent="1c1d494c118603dd-2" source="afBEJ1qmN9qO1VWpJjCL-123" target="afBEJ1qmN9qO1VWpJjCL-32">
          <mxGeometry relative="1" as="geometry" />
        </mxCell>
        <mxCell id="afBEJ1qmN9qO1VWpJjCL-123" value="Save LAEL Rex" style="rounded=1;whiteSpace=wrap;html=1;shadow=0;comic=0;labelBackgroundColor=none;strokeWidth=1;fontFamily=Verdana;fontSize=12;align=center;arcSize=50;" vertex="1" parent="1c1d494c118603dd-2">
          <mxGeometry x="25" y="110" width="165" height="34" as="geometry" />
        </mxCell>
        <mxCell id="afBEJ1qmN9qO1VWpJjCL-51" value="" style="edgeStyle=orthogonalEdgeStyle;rounded=0;orthogonalLoop=1;jettySize=auto;html=1;entryX=0.5;entryY=1;entryDx=0;entryDy=0;" edge="1" parent="1c1d494c118603dd-1" target="afBEJ1qmN9qO1VWpJjCL-46">
          <mxGeometry relative="1" as="geometry">
            <mxPoint x="324.75" y="360" as="sourcePoint" />
            <mxPoint x="172.5" y="357.5" as="targetPoint" />
          </mxGeometry>
        </mxCell>
        <mxCell id="afBEJ1qmN9qO1VWpJjCL-52" value="NO" style="edgeLabel;html=1;align=center;verticalAlign=middle;resizable=0;points=[];" vertex="1" connectable="0" parent="afBEJ1qmN9qO1VWpJjCL-51">
          <mxGeometry x="-0.15" y="-2" relative="1" as="geometry">
            <mxPoint x="32" y="-8" as="offset" />
          </mxGeometry>
        </mxCell>
        <mxCell id="1c1d494c118603dd-31" style="edgeStyle=orthogonalEdgeStyle;rounded=0;html=1;entryX=0.5;entryY=0;labelBackgroundColor=none;startArrow=none;startFill=0;startSize=5;endArrow=classicThin;endFill=1;endSize=5;jettySize=auto;orthogonalLoop=1;strokeWidth=1;fontFamily=Verdana;fontSize=12;exitX=0.5;exitY=1;exitDx=0;exitDy=0;entryDx=0;entryDy=0;" parent="1c1d494c118603dd-1" source="afBEJ1qmN9qO1VWpJjCL-64" target="afBEJ1qmN9qO1VWpJjCL-66" edge="1">
          <mxGeometry relative="1" as="geometry">
            <mxPoint x="290" y="414" as="sourcePoint" />
            <mxPoint x="120" y="444" as="targetPoint" />
            <Array as="points">
              <mxPoint x="522" y="414" />
              <mxPoint x="106" y="414" />
            </Array>
          </mxGeometry>
        </mxCell>
        <mxCell id="1c1d494c118603dd-32" style="edgeStyle=orthogonalEdgeStyle;rounded=0;html=1;labelBackgroundColor=none;startArrow=none;startFill=0;startSize=5;endArrow=classicThin;endFill=1;endSize=5;jettySize=auto;orthogonalLoop=1;strokeWidth=1;fontFamily=Verdana;fontSize=12;exitX=1;exitY=0.5;exitDx=0;exitDy=0;" parent="1c1d494c118603dd-1" source="afBEJ1qmN9qO1VWpJjCL-67" edge="1">
          <mxGeometry relative="1" as="geometry">
            <mxPoint x="280" y="484" as="sourcePoint" />
            <mxPoint x="364" y="514" as="targetPoint" />
            <Array as="points">
              <mxPoint x="233" y="509" />
              <mxPoint x="233" y="494" />
              <mxPoint x="364" y="494" />
              <mxPoint x="364" y="514" />
            </Array>
          </mxGeometry>
        </mxCell>
        <mxCell id="1c1d494c118603dd-3" value="NEXDOC" style="swimlane;html=1;startSize=20;" parent="1c1d494c118603dd-1" vertex="1">
          <mxGeometry x="250" y="20" width="321.5" height="970" as="geometry" />
        </mxCell>
        <mxCell id="60571a20871a0731-3" value="" style="whiteSpace=wrap;html=1;rounded=0;shadow=0;comic=0;labelBackgroundColor=none;strokeWidth=1;fillColor=#000000;fontFamily=Verdana;fontSize=12;align=center;rotation=0;" parent="1c1d494c118603dd-3" vertex="1">
          <mxGeometry x="48" y="214" width="142" height="10" as="geometry" />
        </mxCell>
        <mxCell id="1c1d494c118603dd-11" value="Validate LAEL Rex" style="rounded=1;whiteSpace=wrap;html=1;shadow=0;comic=0;labelBackgroundColor=none;strokeWidth=1;fontFamily=Verdana;fontSize=12;align=center;arcSize=50;" parent="1c1d494c118603dd-3" vertex="1">
          <mxGeometry x="51.5" y="524" width="126" height="30" as="geometry" />
        </mxCell>
        <mxCell id="1c1d494c118603dd-39" style="edgeStyle=none;rounded=0;html=1;labelBackgroundColor=none;startArrow=none;startFill=0;startSize=5;endArrow=classicThin;endFill=1;endSize=5;jettySize=auto;orthogonalLoop=1;strokeWidth=1;fontFamily=Verdana;fontSize=12" parent="1c1d494c118603dd-3" source="1c1d494c118603dd-12" target="1c1d494c118603dd-11" edge="1">
          <mxGeometry relative="1" as="geometry" />
        </mxCell>
        <mxCell id="1c1d494c118603dd-12" value="" style="whiteSpace=wrap;html=1;rounded=0;shadow=0;comic=0;labelBackgroundColor=none;strokeWidth=1;fillColor=#000000;fontFamily=Verdana;fontSize=12;align=center;rotation=0;" parent="1c1d494c118603dd-3" vertex="1">
          <mxGeometry x="40" y="494" width="147" height="10" as="geometry" />
        </mxCell>
        <mxCell id="1c1d494c118603dd-5" value="Validate LAEL Rex Intent" style="rounded=1;whiteSpace=wrap;html=1;shadow=0;comic=0;labelBackgroundColor=none;strokeWidth=1;fontFamily=Verdana;fontSize=12;align=center;arcSize=50;" parent="1c1d494c118603dd-3" vertex="1">
          <mxGeometry x="35.25" y="254" width="158.5" height="30" as="geometry" />
        </mxCell>
        <mxCell id="afBEJ1qmN9qO1VWpJjCL-44" value="" style="endArrow=classic;html=1;rounded=0;entryX=0.5;entryY=0;entryDx=0;entryDy=0;exitX=0.463;exitY=1.3;exitDx=0;exitDy=0;exitPerimeter=0;" edge="1" parent="1c1d494c118603dd-3" source="60571a20871a0731-3" target="1c1d494c118603dd-5">
          <mxGeometry width="50" height="50" relative="1" as="geometry">
            <mxPoint x="100" y="254" as="sourcePoint" />
            <mxPoint x="150" y="204" as="targetPoint" />
          </mxGeometry>
        </mxCell>
        <mxCell id="afBEJ1qmN9qO1VWpJjCL-48" value="" style="endArrow=classic;html=1;rounded=0;entryX=0.5;entryY=0;entryDx=0;entryDy=0;exitX=0.5;exitY=1;exitDx=0;exitDy=0;" edge="1" parent="1c1d494c118603dd-3" source="1c1d494c118603dd-5" target="afBEJ1qmN9qO1VWpJjCL-49">
          <mxGeometry width="50" height="50" relative="1" as="geometry">
            <mxPoint x="110" y="304" as="sourcePoint" />
            <mxPoint x="102" y="334" as="targetPoint" />
          </mxGeometry>
        </mxCell>
        <mxCell id="afBEJ1qmN9qO1VWpJjCL-54" value="" style="edgeStyle=orthogonalEdgeStyle;rounded=0;orthogonalLoop=1;jettySize=auto;html=1;" edge="1" parent="1c1d494c118603dd-3" source="afBEJ1qmN9qO1VWpJjCL-49">
          <mxGeometry relative="1" as="geometry">
            <mxPoint x="220" y="339" as="targetPoint" />
          </mxGeometry>
        </mxCell>
        <mxCell id="afBEJ1qmN9qO1VWpJjCL-60" value="YES" style="edgeLabel;html=1;align=center;verticalAlign=middle;resizable=0;points=[];" vertex="1" connectable="0" parent="afBEJ1qmN9qO1VWpJjCL-54">
          <mxGeometry x="-0.4127" y="-5" relative="1" as="geometry">
            <mxPoint y="-13" as="offset" />
          </mxGeometry>
        </mxCell>
        <mxCell id="afBEJ1qmN9qO1VWpJjCL-49" value="Validation Ok?" style="rhombus;whiteSpace=wrap;html=1;" vertex="1" parent="1c1d494c118603dd-3">
          <mxGeometry x="74.75" y="314" width="78.5" height="50" as="geometry" />
        </mxCell>
        <mxCell id="afBEJ1qmN9qO1VWpJjCL-64" value="Record LAEL REX Intent&lt;div&gt;Approved&lt;/div&gt;" style="rounded=1;whiteSpace=wrap;html=1;shadow=0;comic=0;labelBackgroundColor=none;strokeWidth=1;fontFamily=Verdana;fontSize=12;align=center;arcSize=50;" vertex="1" parent="1c1d494c118603dd-3">
          <mxGeometry x="221.5" y="314" width="100" height="50" as="geometry" />
        </mxCell>
        <mxCell id="afBEJ1qmN9qO1VWpJjCL-69" style="edgeStyle=orthogonalEdgeStyle;rounded=0;orthogonalLoop=1;jettySize=auto;html=1;entryX=0.5;entryY=1;entryDx=0;entryDy=0;" edge="1" parent="1c1d494c118603dd-3" source="afBEJ1qmN9qO1VWpJjCL-70">
          <mxGeometry relative="1" as="geometry">
            <mxPoint x="-140" y="506" as="targetPoint" />
          </mxGeometry>
        </mxCell>
        <mxCell id="afBEJ1qmN9qO1VWpJjCL-70" value="&lt;span style=&quot;font-family: Helvetica;&quot;&gt;Fix validation issues&lt;/span&gt;" style="rounded=1;whiteSpace=wrap;html=1;shadow=0;comic=0;labelBackgroundColor=none;strokeWidth=1;fontFamily=Verdana;fontSize=12;align=center;arcSize=50;" vertex="1" parent="1c1d494c118603dd-3">
          <mxGeometry x="-202.5" y="582" width="125" height="30" as="geometry" />
        </mxCell>
        <mxCell id="afBEJ1qmN9qO1VWpJjCL-71" value="" style="endArrow=classic;html=1;rounded=0;entryX=0.5;entryY=0;entryDx=0;entryDy=0;exitX=0.5;exitY=1;exitDx=0;exitDy=0;" edge="1" parent="1c1d494c118603dd-3" target="afBEJ1qmN9qO1VWpJjCL-74">
          <mxGeometry width="50" height="50" relative="1" as="geometry">
            <mxPoint x="114" y="552" as="sourcePoint" />
            <mxPoint x="102" y="602" as="targetPoint" />
          </mxGeometry>
        </mxCell>
        <mxCell id="afBEJ1qmN9qO1VWpJjCL-72" value="" style="edgeStyle=orthogonalEdgeStyle;rounded=0;orthogonalLoop=1;jettySize=auto;html=1;" edge="1" parent="1c1d494c118603dd-3" source="afBEJ1qmN9qO1VWpJjCL-74">
          <mxGeometry relative="1" as="geometry">
            <mxPoint x="220" y="607" as="targetPoint" />
          </mxGeometry>
        </mxCell>
        <mxCell id="afBEJ1qmN9qO1VWpJjCL-73" value="YES" style="edgeLabel;html=1;align=center;verticalAlign=middle;resizable=0;points=[];" vertex="1" connectable="0" parent="afBEJ1qmN9qO1VWpJjCL-72">
          <mxGeometry x="-0.4127" y="-5" relative="1" as="geometry">
            <mxPoint y="-13" as="offset" />
          </mxGeometry>
        </mxCell>
        <mxCell id="afBEJ1qmN9qO1VWpJjCL-74" value="Validation Ok?" style="rhombus;whiteSpace=wrap;html=1;" vertex="1" parent="1c1d494c118603dd-3">
          <mxGeometry x="74.75" y="582" width="78.5" height="50" as="geometry" />
        </mxCell>
        <mxCell id="afBEJ1qmN9qO1VWpJjCL-75" value="Record LAEL REX Intent&lt;div&gt;Approved&lt;/div&gt;" style="rounded=1;whiteSpace=wrap;html=1;shadow=0;comic=0;labelBackgroundColor=none;strokeWidth=1;fontFamily=Verdana;fontSize=12;align=center;arcSize=50;" vertex="1" parent="1c1d494c118603dd-3">
          <mxGeometry x="221.5" y="582" width="100" height="50" as="geometry" />
        </mxCell>
        <mxCell id="afBEJ1qmN9qO1VWpJjCL-76" value="" style="edgeStyle=orthogonalEdgeStyle;rounded=0;orthogonalLoop=1;jettySize=auto;html=1;entryX=1;entryY=0.25;entryDx=0;entryDy=0;" edge="1" parent="1c1d494c118603dd-3" source="afBEJ1qmN9qO1VWpJjCL-74" target="afBEJ1qmN9qO1VWpJjCL-70">
          <mxGeometry relative="1" as="geometry" />
        </mxCell>
        <mxCell id="afBEJ1qmN9qO1VWpJjCL-77" value="NO" style="edgeLabel;html=1;align=center;verticalAlign=middle;resizable=0;points=[];" vertex="1" connectable="0" parent="afBEJ1qmN9qO1VWpJjCL-76">
          <mxGeometry x="-0.15" y="-2" relative="1" as="geometry">
            <mxPoint x="32" y="-8" as="offset" />
          </mxGeometry>
        </mxCell>
        <mxCell id="afBEJ1qmN9qO1VWpJjCL-118" style="edgeStyle=none;rounded=0;html=1;dashed=1;labelBackgroundColor=none;startArrow=none;startFill=0;startSize=5;endArrow=oval;endFill=0;endSize=5;jettySize=auto;orthogonalLoop=1;strokeWidth=1;fontFamily=Verdana;fontSize=12" edge="1" parent="1c1d494c118603dd-3">
          <mxGeometry relative="1" as="geometry">
            <mxPoint x="20" y="344" as="sourcePoint" />
            <mxPoint x="20" y="304" as="targetPoint" />
          </mxGeometry>
        </mxCell>
        <mxCell id="afBEJ1qmN9qO1VWpJjCL-119" style="edgeStyle=none;rounded=0;html=1;dashed=1;labelBackgroundColor=none;startArrow=none;startFill=0;startSize=5;endArrow=oval;endFill=0;endSize=5;jettySize=auto;orthogonalLoop=1;strokeWidth=1;fontFamily=Verdana;fontSize=12" edge="1" parent="1c1d494c118603dd-3">
          <mxGeometry relative="1" as="geometry">
            <mxPoint x="35" y="594" as="sourcePoint" />
            <mxPoint x="15" y="564" as="targetPoint" />
          </mxGeometry>
        </mxCell>
        <mxCell id="afBEJ1qmN9qO1VWpJjCL-120" value="Display validation error" style="shape=note;whiteSpace=wrap;html=1;rounded=0;shadow=0;comic=0;labelBackgroundColor=none;strokeWidth=1;fontFamily=Verdana;fontSize=12;align=center;size=20;" vertex="1" parent="1c1d494c118603dd-3">
          <mxGeometry x="-60" y="514" width="95" height="45" as="geometry" />
        </mxCell>
        <mxCell id="afBEJ1qmN9qO1VWpJjCL-125" value="Create Draft REX" style="rounded=1;whiteSpace=wrap;html=1;shadow=0;comic=0;labelBackgroundColor=none;strokeWidth=1;fontFamily=Verdana;fontSize=12;align=center;arcSize=50;" vertex="1" parent="1c1d494c118603dd-3">
          <mxGeometry x="100.5" y="80" width="100" height="30" as="geometry" />
        </mxCell>
        <mxCell id="afBEJ1qmN9qO1VWpJjCL-126" value="Create ICS record" style="rounded=1;whiteSpace=wrap;html=1;shadow=0;comic=0;labelBackgroundColor=none;strokeWidth=1;fontFamily=Verdana;fontSize=12;align=center;arcSize=50;" vertex="1" parent="1c1d494c118603dd-3">
          <mxGeometry x="110.75" y="140" width="100" height="30" as="geometry" />
        </mxCell>
        <mxCell id="afBEJ1qmN9qO1VWpJjCL-127" value="" style="whiteSpace=wrap;html=1;rounded=0;shadow=0;comic=0;labelBackgroundColor=none;strokeWidth=1;fillColor=#000000;fontFamily=Verdana;fontSize=12;align=center;rotation=0;" vertex="1" parent="1c1d494c118603dd-3">
          <mxGeometry x="79.5" y="40" width="142" height="10" as="geometry" />
        </mxCell>
        <mxCell id="afBEJ1qmN9qO1VWpJjCL-129" value="" style="endArrow=classic;html=1;rounded=0;exitX=0.5;exitY=1;exitDx=0;exitDy=0;entryX=0.393;entryY=-0.1;entryDx=0;entryDy=0;entryPerimeter=0;" edge="1" parent="1c1d494c118603dd-3">
          <mxGeometry width="50" height="50" relative="1" as="geometry">
            <mxPoint x="155.5" y="53" as="sourcePoint" />
            <mxPoint x="155.04999999999995" y="80" as="targetPoint" />
          </mxGeometry>
        </mxCell>
        <mxCell id="afBEJ1qmN9qO1VWpJjCL-79" value="LAEL Veterinary" style="swimlane;html=1;startSize=20;" vertex="1" parent="1c1d494c118603dd-1">
          <mxGeometry x="571.5" y="20" width="250" height="970" as="geometry" />
        </mxCell>
        <mxCell id="afBEJ1qmN9qO1VWpJjCL-80" style="rounded=0;html=1;labelBackgroundColor=none;startArrow=none;startFill=0;startSize=5;endArrow=classicThin;endFill=1;endSize=5;jettySize=auto;orthogonalLoop=1;strokeWidth=1;fontFamily=Verdana;fontSize=12" edge="1" parent="afBEJ1qmN9qO1VWpJjCL-79" target="afBEJ1qmN9qO1VWpJjCL-85">
          <mxGeometry relative="1" as="geometry">
            <mxPoint x="83.75" y="238" as="sourcePoint" />
          </mxGeometry>
        </mxCell>
        <mxCell id="afBEJ1qmN9qO1VWpJjCL-82" style="edgeStyle=none;rounded=0;html=1;labelBackgroundColor=none;startArrow=none;startFill=0;startSize=5;endArrow=classicThin;endFill=1;endSize=5;jettySize=auto;orthogonalLoop=1;strokeWidth=1;fontFamily=Verdana;fontSize=12" edge="1" parent="afBEJ1qmN9qO1VWpJjCL-79" target="afBEJ1qmN9qO1VWpJjCL-86">
          <mxGeometry relative="1" as="geometry">
            <mxPoint x="85" y="356.1111111111111" as="sourcePoint" />
          </mxGeometry>
        </mxCell>
        <mxCell id="afBEJ1qmN9qO1VWpJjCL-84" style="edgeStyle=none;rounded=0;html=1;labelBackgroundColor=none;startArrow=none;startFill=0;startSize=5;endArrow=classicThin;endFill=1;endSize=5;jettySize=auto;orthogonalLoop=1;strokeWidth=1;fontFamily=Verdana;fontSize=12" edge="1" parent="afBEJ1qmN9qO1VWpJjCL-79" target="afBEJ1qmN9qO1VWpJjCL-83">
          <mxGeometry relative="1" as="geometry">
            <mxPoint x="70.5645161290322" y="298" as="sourcePoint" />
          </mxGeometry>
        </mxCell>
        <mxCell id="afBEJ1qmN9qO1VWpJjCL-88" style="edgeStyle=none;rounded=0;html=1;labelBackgroundColor=none;startArrow=none;startFill=0;startSize=5;endArrow=classicThin;endFill=1;endSize=5;jettySize=auto;orthogonalLoop=1;strokeWidth=1;fontFamily=Verdana;fontSize=12" edge="1" parent="afBEJ1qmN9qO1VWpJjCL-79" target="afBEJ1qmN9qO1VWpJjCL-91">
          <mxGeometry relative="1" as="geometry">
            <mxPoint x="120" y="700" as="sourcePoint" />
          </mxGeometry>
        </mxCell>
        <mxCell id="afBEJ1qmN9qO1VWpJjCL-90" style="edgeStyle=none;rounded=0;html=1;labelBackgroundColor=none;startArrow=none;startFill=0;startSize=5;endArrow=classicThin;endFill=1;endSize=5;jettySize=auto;orthogonalLoop=1;strokeWidth=1;fontFamily=Verdana;fontSize=12" edge="1" parent="afBEJ1qmN9qO1VWpJjCL-79" source="afBEJ1qmN9qO1VWpJjCL-91" target="afBEJ1qmN9qO1VWpJjCL-92">
          <mxGeometry relative="1" as="geometry" />
        </mxCell>
        <mxCell id="afBEJ1qmN9qO1VWpJjCL-91" value="Action" style="rounded=1;whiteSpace=wrap;html=1;shadow=0;comic=0;labelBackgroundColor=none;strokeWidth=1;fontFamily=Verdana;fontSize=12;align=center;arcSize=50;" vertex="1" parent="afBEJ1qmN9qO1VWpJjCL-79">
          <mxGeometry x="70" y="810" width="100" height="30" as="geometry" />
        </mxCell>
        <mxCell id="afBEJ1qmN9qO1VWpJjCL-92" value="" style="shape=mxgraph.bpmn.shape;html=1;verticalLabelPosition=bottom;labelBackgroundColor=#ffffff;verticalAlign=top;perimeter=ellipsePerimeter;outline=end;symbol=terminate;rounded=0;shadow=0;comic=0;strokeWidth=1;fontFamily=Verdana;fontSize=12;align=center;" vertex="1" parent="afBEJ1qmN9qO1VWpJjCL-79">
          <mxGeometry x="100" y="880" width="40" height="40" as="geometry" />
        </mxCell>
        <mxCell id="afBEJ1qmN9qO1VWpJjCL-93" style="edgeStyle=none;rounded=0;html=1;dashed=1;labelBackgroundColor=none;startArrow=none;startFill=0;startSize=5;endArrow=oval;endFill=0;endSize=5;jettySize=auto;orthogonalLoop=1;strokeWidth=1;fontFamily=Verdana;fontSize=12" edge="1" parent="afBEJ1qmN9qO1VWpJjCL-79" source="afBEJ1qmN9qO1VWpJjCL-95">
          <mxGeometry relative="1" as="geometry">
            <mxPoint x="122.9545454545455" y="238" as="targetPoint" />
          </mxGeometry>
        </mxCell>
        <mxCell id="afBEJ1qmN9qO1VWpJjCL-94" style="edgeStyle=none;rounded=0;html=1;dashed=1;labelBackgroundColor=none;startArrow=none;startFill=0;startSize=5;endArrow=oval;endFill=0;endSize=5;jettySize=auto;orthogonalLoop=1;strokeWidth=1;fontFamily=Verdana;fontSize=12" edge="1" parent="afBEJ1qmN9qO1VWpJjCL-79" source="afBEJ1qmN9qO1VWpJjCL-95">
          <mxGeometry relative="1" as="geometry">
            <mxPoint x="85" y="281.8135593220338" as="targetPoint" />
          </mxGeometry>
        </mxCell>
        <mxCell id="afBEJ1qmN9qO1VWpJjCL-96" style="edgeStyle=none;rounded=0;html=1;dashed=1;labelBackgroundColor=none;startArrow=none;startFill=0;startSize=5;endArrow=oval;endFill=0;endSize=5;jettySize=auto;orthogonalLoop=1;strokeWidth=1;fontFamily=Verdana;fontSize=12" edge="1" parent="afBEJ1qmN9qO1VWpJjCL-79" source="afBEJ1qmN9qO1VWpJjCL-98">
          <mxGeometry relative="1" as="geometry">
            <mxPoint x="139.23076923076906" y="360" as="targetPoint" />
          </mxGeometry>
        </mxCell>
        <mxCell id="afBEJ1qmN9qO1VWpJjCL-97" style="edgeStyle=none;rounded=0;html=1;dashed=1;labelBackgroundColor=none;startArrow=none;startFill=0;startSize=5;endArrow=oval;endFill=0;endSize=5;jettySize=auto;orthogonalLoop=1;strokeWidth=1;fontFamily=Verdana;fontSize=12" edge="1" parent="afBEJ1qmN9qO1VWpJjCL-79" target="afBEJ1qmN9qO1VWpJjCL-86">
          <mxGeometry relative="1" as="geometry">
            <mxPoint x="110" y="420.6923076923076" as="sourcePoint" />
          </mxGeometry>
        </mxCell>
        <mxCell id="afBEJ1qmN9qO1VWpJjCL-101" style="edgeStyle=none;rounded=0;html=1;dashed=1;labelBackgroundColor=none;startArrow=none;startFill=0;startSize=5;endArrow=oval;endFill=0;endSize=5;jettySize=auto;orthogonalLoop=1;strokeWidth=1;fontFamily=Verdana;fontSize=12" edge="1" parent="afBEJ1qmN9qO1VWpJjCL-79" source="afBEJ1qmN9qO1VWpJjCL-102" target="afBEJ1qmN9qO1VWpJjCL-91">
          <mxGeometry relative="1" as="geometry" />
        </mxCell>
        <mxCell id="afBEJ1qmN9qO1VWpJjCL-102" value="Note" style="shape=note;whiteSpace=wrap;html=1;rounded=0;shadow=0;comic=0;labelBackgroundColor=none;strokeWidth=1;fontFamily=Verdana;fontSize=12;align=center;size=20;" vertex="1" parent="afBEJ1qmN9qO1VWpJjCL-79">
          <mxGeometry x="150" y="740" width="95" height="45" as="geometry" />
        </mxCell>
        <mxCell id="afBEJ1qmN9qO1VWpJjCL-131" style="edgeStyle=orthogonalEdgeStyle;rounded=0;orthogonalLoop=1;jettySize=auto;html=1;entryX=0;entryY=0.5;entryDx=0;entryDy=0;" edge="1" parent="1c1d494c118603dd-1" source="afBEJ1qmN9qO1VWpJjCL-123" target="afBEJ1qmN9qO1VWpJjCL-127">
          <mxGeometry relative="1" as="geometry" />
        </mxCell>
        <mxCell id="afBEJ1qmN9qO1VWpJjCL-1" value="LAEL Veterinary" style="swimlane;html=1;startSize=20;" vertex="1" parent="1">
          <mxGeometry x="860" y="40" width="250" height="970" as="geometry" />
        </mxCell>
        <mxCell id="afBEJ1qmN9qO1VWpJjCL-5" style="rounded=0;html=1;labelBackgroundColor=none;startArrow=none;startFill=0;startSize=5;endArrow=classicThin;endFill=1;endSize=5;jettySize=auto;orthogonalLoop=1;strokeWidth=1;fontFamily=Verdana;fontSize=12" edge="1" parent="afBEJ1qmN9qO1VWpJjCL-1" source="afBEJ1qmN9qO1VWpJjCL-6" target="afBEJ1qmN9qO1VWpJjCL-10">
          <mxGeometry relative="1" as="geometry" />
        </mxCell>
        <mxCell id="afBEJ1qmN9qO1VWpJjCL-6" value="Action" style="rounded=1;whiteSpace=wrap;html=1;shadow=0;comic=0;labelBackgroundColor=none;strokeWidth=1;fontFamily=Verdana;fontSize=12;align=center;arcSize=50;" vertex="1" parent="afBEJ1qmN9qO1VWpJjCL-1">
          <mxGeometry x="45" y="208" width="100" height="30" as="geometry" />
        </mxCell>
        <mxCell id="afBEJ1qmN9qO1VWpJjCL-7" style="edgeStyle=none;rounded=0;html=1;labelBackgroundColor=none;startArrow=none;startFill=0;startSize=5;endArrow=classicThin;endFill=1;endSize=5;jettySize=auto;orthogonalLoop=1;strokeWidth=1;fontFamily=Verdana;fontSize=12" edge="1" parent="afBEJ1qmN9qO1VWpJjCL-1" source="afBEJ1qmN9qO1VWpJjCL-8" target="afBEJ1qmN9qO1VWpJjCL-11">
          <mxGeometry relative="1" as="geometry" />
        </mxCell>
        <mxCell id="afBEJ1qmN9qO1VWpJjCL-8" value="Action" style="rounded=1;whiteSpace=wrap;html=1;shadow=0;comic=0;labelBackgroundColor=none;strokeWidth=1;fontFamily=Verdana;fontSize=12;align=center;arcSize=50;" vertex="1" parent="afBEJ1qmN9qO1VWpJjCL-1">
          <mxGeometry x="85" y="330" width="100" height="30" as="geometry" />
        </mxCell>
        <mxCell id="afBEJ1qmN9qO1VWpJjCL-9" style="edgeStyle=none;rounded=0;html=1;labelBackgroundColor=none;startArrow=none;startFill=0;startSize=5;endArrow=classicThin;endFill=1;endSize=5;jettySize=auto;orthogonalLoop=1;strokeWidth=1;fontFamily=Verdana;fontSize=12" edge="1" parent="afBEJ1qmN9qO1VWpJjCL-1" source="afBEJ1qmN9qO1VWpJjCL-10" target="afBEJ1qmN9qO1VWpJjCL-8">
          <mxGeometry relative="1" as="geometry" />
        </mxCell>
        <mxCell id="afBEJ1qmN9qO1VWpJjCL-10" value="Object" style="rounded=0;whiteSpace=wrap;html=1;shadow=0;comic=0;labelBackgroundColor=none;strokeWidth=1;fontFamily=Verdana;fontSize=12;align=center;arcSize=50;" vertex="1" parent="afBEJ1qmN9qO1VWpJjCL-1">
          <mxGeometry x="15" y="268" width="70" height="30" as="geometry" />
        </mxCell>
        <mxCell id="afBEJ1qmN9qO1VWpJjCL-11" value="Object" style="rounded=0;whiteSpace=wrap;html=1;shadow=0;comic=0;labelBackgroundColor=none;strokeWidth=1;fontFamily=Verdana;fontSize=12;align=center;arcSize=50;" vertex="1" parent="afBEJ1qmN9qO1VWpJjCL-1">
          <mxGeometry x="-35" y="360" width="70" height="30" as="geometry" />
        </mxCell>
        <mxCell id="afBEJ1qmN9qO1VWpJjCL-12" style="edgeStyle=none;rounded=0;html=1;labelBackgroundColor=none;startArrow=none;startFill=0;startSize=5;endArrow=classicThin;endFill=1;endSize=5;jettySize=auto;orthogonalLoop=1;strokeWidth=1;fontFamily=Verdana;fontSize=12" edge="1" parent="afBEJ1qmN9qO1VWpJjCL-1" target="afBEJ1qmN9qO1VWpJjCL-15">
          <mxGeometry relative="1" as="geometry">
            <mxPoint x="30" y="640" as="sourcePoint" />
          </mxGeometry>
        </mxCell>
        <mxCell id="afBEJ1qmN9qO1VWpJjCL-14" style="edgeStyle=none;rounded=0;html=1;labelBackgroundColor=none;startArrow=none;startFill=0;startSize=5;endArrow=classicThin;endFill=1;endSize=5;jettySize=auto;orthogonalLoop=1;strokeWidth=1;fontFamily=Verdana;fontSize=12" edge="1" parent="afBEJ1qmN9qO1VWpJjCL-1" source="afBEJ1qmN9qO1VWpJjCL-15" target="afBEJ1qmN9qO1VWpJjCL-17">
          <mxGeometry relative="1" as="geometry" />
        </mxCell>
        <mxCell id="afBEJ1qmN9qO1VWpJjCL-15" value="Action" style="rounded=1;whiteSpace=wrap;html=1;shadow=0;comic=0;labelBackgroundColor=none;strokeWidth=1;fontFamily=Verdana;fontSize=12;align=center;arcSize=50;" vertex="1" parent="afBEJ1qmN9qO1VWpJjCL-1">
          <mxGeometry x="70" y="670" width="100" height="30" as="geometry" />
        </mxCell>
        <mxCell id="afBEJ1qmN9qO1VWpJjCL-16" style="edgeStyle=none;rounded=0;html=1;labelBackgroundColor=none;startArrow=none;startFill=0;startSize=5;endArrow=classicThin;endFill=1;endSize=5;jettySize=auto;orthogonalLoop=1;strokeWidth=1;fontFamily=Verdana;fontSize=12" edge="1" parent="afBEJ1qmN9qO1VWpJjCL-1" source="afBEJ1qmN9qO1VWpJjCL-17" target="afBEJ1qmN9qO1VWpJjCL-18">
          <mxGeometry relative="1" as="geometry" />
        </mxCell>
        <mxCell id="afBEJ1qmN9qO1VWpJjCL-17" value="Action" style="rounded=1;whiteSpace=wrap;html=1;shadow=0;comic=0;labelBackgroundColor=none;strokeWidth=1;fontFamily=Verdana;fontSize=12;align=center;arcSize=50;" vertex="1" parent="afBEJ1qmN9qO1VWpJjCL-1">
          <mxGeometry x="70" y="810" width="100" height="30" as="geometry" />
        </mxCell>
        <mxCell id="afBEJ1qmN9qO1VWpJjCL-18" value="" style="shape=mxgraph.bpmn.shape;html=1;verticalLabelPosition=bottom;labelBackgroundColor=#ffffff;verticalAlign=top;perimeter=ellipsePerimeter;outline=end;symbol=terminate;rounded=0;shadow=0;comic=0;strokeWidth=1;fontFamily=Verdana;fontSize=12;align=center;" vertex="1" parent="afBEJ1qmN9qO1VWpJjCL-1">
          <mxGeometry x="100" y="880" width="40" height="40" as="geometry" />
        </mxCell>
        <mxCell id="afBEJ1qmN9qO1VWpJjCL-19" style="edgeStyle=none;rounded=0;html=1;dashed=1;labelBackgroundColor=none;startArrow=none;startFill=0;startSize=5;endArrow=oval;endFill=0;endSize=5;jettySize=auto;orthogonalLoop=1;strokeWidth=1;fontFamily=Verdana;fontSize=12" edge="1" parent="afBEJ1qmN9qO1VWpJjCL-1" source="afBEJ1qmN9qO1VWpJjCL-21" target="afBEJ1qmN9qO1VWpJjCL-6">
          <mxGeometry relative="1" as="geometry" />
        </mxCell>
        <mxCell id="afBEJ1qmN9qO1VWpJjCL-20" style="edgeStyle=none;rounded=0;html=1;dashed=1;labelBackgroundColor=none;startArrow=none;startFill=0;startSize=5;endArrow=oval;endFill=0;endSize=5;jettySize=auto;orthogonalLoop=1;strokeWidth=1;fontFamily=Verdana;fontSize=12" edge="1" parent="afBEJ1qmN9qO1VWpJjCL-1" source="afBEJ1qmN9qO1VWpJjCL-21" target="afBEJ1qmN9qO1VWpJjCL-10">
          <mxGeometry relative="1" as="geometry" />
        </mxCell>
        <mxCell id="afBEJ1qmN9qO1VWpJjCL-21" value="Note" style="shape=note;whiteSpace=wrap;html=1;rounded=0;shadow=0;comic=0;labelBackgroundColor=none;strokeWidth=1;fontFamily=Verdana;fontSize=12;align=center;size=20;" vertex="1" parent="afBEJ1qmN9qO1VWpJjCL-1">
          <mxGeometry x="160" y="256" width="75" height="44" as="geometry" />
        </mxCell>
        <mxCell id="afBEJ1qmN9qO1VWpJjCL-22" style="edgeStyle=none;rounded=0;html=1;dashed=1;labelBackgroundColor=none;startArrow=none;startFill=0;startSize=5;endArrow=oval;endFill=0;endSize=5;jettySize=auto;orthogonalLoop=1;strokeWidth=1;fontFamily=Verdana;fontSize=12" edge="1" parent="afBEJ1qmN9qO1VWpJjCL-1" source="afBEJ1qmN9qO1VWpJjCL-24" target="afBEJ1qmN9qO1VWpJjCL-8">
          <mxGeometry relative="1" as="geometry" />
        </mxCell>
        <mxCell id="afBEJ1qmN9qO1VWpJjCL-23" style="edgeStyle=none;rounded=0;html=1;dashed=1;labelBackgroundColor=none;startArrow=none;startFill=0;startSize=5;endArrow=oval;endFill=0;endSize=5;jettySize=auto;orthogonalLoop=1;strokeWidth=1;fontFamily=Verdana;fontSize=12" edge="1" parent="afBEJ1qmN9qO1VWpJjCL-1" source="afBEJ1qmN9qO1VWpJjCL-24" target="afBEJ1qmN9qO1VWpJjCL-11">
          <mxGeometry relative="1" as="geometry" />
        </mxCell>
        <mxCell id="afBEJ1qmN9qO1VWpJjCL-24" value="Note" style="shape=note;whiteSpace=wrap;html=1;rounded=0;shadow=0;comic=0;labelBackgroundColor=none;strokeWidth=1;fontFamily=Verdana;fontSize=12;align=center;size=20;" vertex="1" parent="afBEJ1qmN9qO1VWpJjCL-1">
          <mxGeometry x="110" y="415" width="105" height="55" as="geometry" />
        </mxCell>
        <mxCell id="afBEJ1qmN9qO1VWpJjCL-25" style="edgeStyle=none;rounded=0;html=1;dashed=1;labelBackgroundColor=none;startArrow=none;startFill=0;startSize=5;endArrow=oval;endFill=0;endSize=5;jettySize=auto;orthogonalLoop=1;strokeWidth=1;fontFamily=Verdana;fontSize=12" edge="1" parent="afBEJ1qmN9qO1VWpJjCL-1" target="afBEJ1qmN9qO1VWpJjCL-15">
          <mxGeometry relative="1" as="geometry">
            <mxPoint x="156.96428571428578" y="640" as="sourcePoint" />
          </mxGeometry>
        </mxCell>
        <mxCell id="afBEJ1qmN9qO1VWpJjCL-26" style="edgeStyle=none;rounded=0;html=1;dashed=1;labelBackgroundColor=none;startArrow=none;startFill=0;startSize=5;endArrow=oval;endFill=0;endSize=5;jettySize=auto;orthogonalLoop=1;strokeWidth=1;fontFamily=Verdana;fontSize=12" edge="1" parent="afBEJ1qmN9qO1VWpJjCL-1">
          <mxGeometry relative="1" as="geometry">
            <mxPoint x="120" y="618.2394366197184" as="sourcePoint" />
            <mxPoint x="35" y="623.0281690140846" as="targetPoint" />
          </mxGeometry>
        </mxCell>
        <mxCell id="afBEJ1qmN9qO1VWpJjCL-28" style="edgeStyle=none;rounded=0;html=1;dashed=1;labelBackgroundColor=none;startArrow=none;startFill=0;startSize=5;endArrow=oval;endFill=0;endSize=5;jettySize=auto;orthogonalLoop=1;strokeWidth=1;fontFamily=Verdana;fontSize=12" edge="1" parent="afBEJ1qmN9qO1VWpJjCL-1" source="afBEJ1qmN9qO1VWpJjCL-29" target="afBEJ1qmN9qO1VWpJjCL-17">
          <mxGeometry relative="1" as="geometry" />
        </mxCell>
        <mxCell id="afBEJ1qmN9qO1VWpJjCL-29" value="Note" style="shape=note;whiteSpace=wrap;html=1;rounded=0;shadow=0;comic=0;labelBackgroundColor=none;strokeWidth=1;fontFamily=Verdana;fontSize=12;align=center;size=20;" vertex="1" parent="afBEJ1qmN9qO1VWpJjCL-1">
          <mxGeometry x="150" y="740" width="95" height="45" as="geometry" />
        </mxCell>
        <mxCell id="1c1d494c118603dd-30" style="edgeStyle=orthogonalEdgeStyle;rounded=0;html=1;exitX=0.25;exitY=1;entryX=0.5;entryY=0;labelBackgroundColor=none;startArrow=none;startFill=0;startSize=5;endArrow=classicThin;endFill=1;endSize=5;jettySize=auto;orthogonalLoop=1;strokeWidth=1;fontFamily=Verdana;fontSize=12" parent="1" edge="1">
          <mxGeometry relative="1" as="geometry">
            <Array as="points">
              <mxPoint x="1247" y="470" />
              <mxPoint x="1070" y="470" />
            </Array>
            <mxPoint x="1246.75" y="450" as="sourcePoint" />
            <mxPoint x="1080" y="620" as="targetPoint" />
          </mxGeometry>
        </mxCell>
        <mxCell id="afBEJ1qmN9qO1VWpJjCL-68" value="" style="endArrow=classic;html=1;rounded=0;entryX=0.5;entryY=0;entryDx=0;entryDy=0;" edge="1" parent="1">
          <mxGeometry width="50" height="50" relative="1" as="geometry">
            <mxPoint x="147" y="494" as="sourcePoint" />
            <mxPoint x="147" y="514" as="targetPoint" />
          </mxGeometry>
        </mxCell>
        <mxCell id="afBEJ1qmN9qO1VWpJjCL-117" value="Display validation error" style="shape=note;whiteSpace=wrap;html=1;rounded=0;shadow=0;comic=0;labelBackgroundColor=none;strokeWidth=1;fontFamily=Verdana;fontSize=12;align=center;size=20;" vertex="1" parent="1">
          <mxGeometry x="215" y="294" width="95" height="45" as="geometry" />
        </mxCell>
        <mxCell id="afBEJ1qmN9qO1VWpJjCL-130" value="" style="endArrow=classic;html=1;rounded=0;exitX=0.5;exitY=1;exitDx=0;exitDy=0;entryX=0.393;entryY=-0.1;entryDx=0;entryDy=0;entryPerimeter=0;" edge="1" parent="1">
          <mxGeometry width="50" height="50" relative="1" as="geometry">
            <mxPoint x="445.5" y="149" as="sourcePoint" />
            <mxPoint x="445.04999999999995" y="176" as="targetPoint" />
          </mxGeometry>
        </mxCell>
      </root>
    </mxGraphModel>
  </diagram>
</mxfile>
